<svg width="28" height="28" viewBox="0 0 28 28" fill="none" xmlns="http://www.w3.org/2000/svg">
<path d="M19.8334 3.49995C20.1398 3.19353 20.5036 2.95046 20.9039 2.78463C21.3043 2.6188 21.7334 2.53345 22.1667 2.53345C22.6 2.53345 23.0291 2.6188 23.4295 2.78463C23.8299 2.95046 24.1936 3.19353 24.5 3.49995C24.8065 3.80636 25.0495 4.17013 25.2154 4.57049C25.3812 4.97084 25.4665 5.39994 25.4665 5.83328C25.4665 6.26662 25.3812 6.69572 25.2154 7.09607C25.0495 7.49642 24.8065 7.86019 24.5 8.16661L8.75004 23.9166L2.33337 25.6666L4.08337 19.2499L19.8334 3.49995Z" stroke="#A8A8A8" stroke-width="2" stroke-linecap="round" stroke-linejoin="round"/>
</svg>
