<svg width="40" height="40" viewBox="0 0 40 40" fill="none" xmlns="http://www.w3.org/2000/svg">
<path d="M30 13.333C30 10.6808 28.9464 8.1373 27.0711 6.26194C25.1957 4.38658 22.6522 3.33301 20 3.33301C17.3478 3.33301 14.8043 4.38658 12.9289 6.26194C11.0536 8.1373 10 10.6808 10 13.333C10 24.9997 5 28.333 5 28.333H35C35 28.333 30 24.9997 30 13.333Z" stroke="white" stroke-width="2" stroke-linecap="round" stroke-linejoin="round"/>
<path d="M22.8834 35C22.5903 35.5051 22.1698 35.9244 21.6637 36.2159C21.1577 36.5073 20.584 36.6608 20 36.6608C19.4161 36.6608 18.8423 36.5073 18.3363 36.2159C17.8303 35.9244 17.4097 35.5051 17.1167 35" stroke="white" stroke-width="2" stroke-linecap="round" stroke-linejoin="round"/>
</svg>
