<svg width="40" height="40" viewBox="0 0 40 40" fill="none" xmlns="http://www.w3.org/2000/svg">
<path d="M19.9999 36.6668C29.2047 36.6668 36.6666 29.2049 36.6666 20.0002C36.6666 10.7954 29.2047 3.3335 19.9999 3.3335C10.7952 3.3335 3.33325 10.7954 3.33325 20.0002C3.33325 29.2049 10.7952 36.6668 19.9999 36.6668Z" stroke="#292929" stroke-width="2" stroke-linecap="round" stroke-linejoin="round"/>
<path d="M15.1499 15C15.5417 13.8861 16.3152 12.9468 17.3332 12.3485C18.3512 11.7502 19.5481 11.5315 20.7119 11.7312C21.8757 11.9308 22.9313 12.5358 23.6917 13.4392C24.4521 14.3425 24.8683 15.4858 24.8666 16.6666C24.8666 20 19.8666 21.6666 19.8666 21.6666" stroke="#292929" stroke-width="2" stroke-linecap="round" stroke-linejoin="round"/>
<path d="M20 28.3335H20.0167" stroke="#292929" stroke-width="2" stroke-linecap="round" stroke-linejoin="round"/>
</svg>
