<svg width="28" height="24" viewBox="0 0 28 24" fill="none" xmlns="http://www.w3.org/2000/svg">
<path d="M24.3134 3.37827C23.7175 2.7821 23.01 2.30919 22.2313 1.98653C21.4526 1.66387 20.618 1.4978 19.7751 1.4978C18.9322 1.4978 18.0975 1.66387 17.3188 1.98653C16.5401 2.30919 15.8326 2.7821 15.2367 3.37827L14.0001 4.61493L12.7634 3.37827C11.5597 2.17463 9.92726 1.49843 8.22506 1.49843C6.52285 1.49843 4.89036 2.17463 3.68672 3.37827C2.48308 4.58191 1.80688 6.21439 1.80688 7.9166C1.80688 9.6188 2.48308 11.2513 3.68672 12.4549L4.92339 13.6916L14.0001 22.7683L23.0767 13.6916L24.3134 12.4549C24.9096 11.8591 25.3825 11.1515 25.7051 10.3728C26.0278 9.59414 26.1939 8.7595 26.1939 7.9166C26.1939 7.0737 26.0278 6.23905 25.7051 5.46035C25.3825 4.68165 24.9096 3.97415 24.3134 3.37827Z" fill="#D74545" stroke="#D74545" stroke-width="2" stroke-linecap="round" stroke-linejoin="round"/>
</svg>
