<svg width="28" height="28" viewBox="0 0 28 28" fill="none" xmlns="http://www.w3.org/2000/svg">
<path d="M24.3134 5.37839C23.7175 4.78223 23.01 4.30931 22.2313 3.98665C21.4526 3.664 20.618 3.49792 19.7751 3.49792C18.9322 3.49792 18.0975 3.664 17.3188 3.98665C16.5401 4.30931 15.8326 4.78223 15.2367 5.37839L14.0001 6.61505L12.7634 5.37839C11.5597 4.17475 9.92726 3.49855 8.22506 3.49855C6.52285 3.49855 4.89036 4.17475 3.68672 5.37839C2.48308 6.58203 1.80688 8.21452 1.80688 9.91672C1.80688 11.6189 2.48308 13.2514 3.68672 14.4551L4.92339 15.6917L14.0001 24.7684L23.0767 15.6917L24.3134 14.4551C24.9096 13.8592 25.3825 13.1517 25.7051 12.373C26.0278 11.5943 26.1939 10.7596 26.1939 9.91672C26.1939 9.07382 26.0278 8.23918 25.7051 7.46047C25.3825 6.68177 24.9096 5.97427 24.3134 5.37839Z" stroke="#A8A8A8" stroke-width="2" stroke-linecap="round" stroke-linejoin="round"/>
</svg>
